<svg width="48" height="48" viewBox="0 0 48 48" fill="none" xmlns="http://www.w3.org/2000/svg">
<rect width="48" height="48" rx="24" fill="#009496" fill-opacity="0.1"/>
<g clip-path="url(#clip0_1_4962)">
<path d="M24 28.0625C26.2437 28.0625 28.0625 26.2437 28.0625 24C28.0625 21.7563 26.2437 19.9375 24 19.9375C21.7563 19.9375 19.9375 21.7563 19.9375 24C19.9375 26.2437 21.7563 28.0625 24 28.0625Z" stroke="white" stroke-width="2" stroke-miterlimit="10"/>
<path d="M28.875 14.25H19.125C16.4326 14.25 14.25 16.4326 14.25 19.125V28.875C14.25 31.5674 16.4326 33.75 19.125 33.75H28.875C31.5674 33.75 33.75 31.5674 33.75 28.875V19.125C33.75 16.4326 31.5674 14.25 28.875 14.25Z" stroke="white" stroke-width="2" stroke-linecap="round" stroke-linejoin="round"/>
<path d="M30.4375 18.7188C30.4375 19.3573 29.9198 19.875 29.2812 19.875C28.6427 19.875 28.125 19.3573 28.125 18.7188C28.125 18.0802 28.6427 17.5625 29.2812 17.5625C29.9198 17.5625 30.4375 18.0802 30.4375 18.7188Z" fill="white" stroke="white" stroke-width="0.125"/>
</g>
<defs>
<clipPath id="clip0_1_4962">
<rect width="26" height="26" fill="white" transform="translate(11 11)"/>
</clipPath>
</defs>
</svg>
