<svg width="48" height="48" viewBox="0 0 48 48" fill="none" xmlns="http://www.w3.org/2000/svg">
<rect width="48" height="48" rx="24" fill="#009496" fill-opacity="0.1"/>
<path d="M18.5183 16.4168C18.518 16.9914 18.2895 17.5424 17.883 17.9485C17.4764 18.3546 16.9252 18.5826 16.3506 18.5824C15.7759 18.5821 15.225 18.3535 14.8188 17.947C14.4127 17.5405 14.1847 16.9892 14.185 16.4146C14.1853 15.84 14.4138 15.289 14.8204 14.8829C15.2269 14.4767 15.7781 14.2487 16.3527 14.249C16.9274 14.2493 17.4784 14.4779 17.8845 14.8844C18.2906 15.2909 18.5186 15.8421 18.5183 16.4168ZM18.5833 20.1868H14.25V33.7501H18.5833V20.1868ZM25.43 20.1868H21.1183V33.7501H25.3867V26.6326C25.3867 22.6676 30.5542 22.2993 30.5542 26.6326V33.7501H34.8333V25.1593C34.8333 18.4751 27.185 18.7243 25.3867 22.0068L25.43 20.1868Z" fill="white"/>
</svg>
