<svg width="118" height="56" viewBox="0 0 118 56" fill="none" xmlns="http://www.w3.org/2000/svg">
<g clip-path="url(#clip0_4_1984)">
<path d="M43.6089 32.9796V20.1923H44.9552V31.7866H50.9671V32.9796H43.6089Z" fill="#0F1828"/>
<path d="M53.4787 22.365C52.8861 22.365 52.4731 21.9734 52.4731 21.4218C52.4731 20.8702 52.8861 20.4955 53.4787 20.4955C54.0712 20.4955 54.5011 20.8871 54.5011 21.4218C54.5011 21.9565 54.0882 22.365 53.4787 22.365ZM52.8691 32.9797V23.5944H54.125V32.9797H52.8691Z" fill="#0F1828"/>
<path d="M60.4949 32.9796H59.1853L55.5776 23.5944H56.924L59.8854 31.52L62.8467 23.5944H64.1393L60.4963 32.9796H60.4949Z" fill="#0F1828"/>
<path d="M64.6045 28.2077C64.6045 25.4652 66.4345 23.4175 68.9476 23.4175C71.6388 23.4175 73.3981 25.5719 73.1832 28.5824H65.8617C65.9692 30.8084 67.1543 32.1796 69.0027 32.1796C70.5824 32.1796 71.677 31.3066 71.9811 29.8105H73.2199C72.7886 31.8947 71.1919 33.1592 69.0211 33.1592C66.3652 33.1592 64.6059 31.1817 64.6059 28.2077H64.6045ZM65.8603 27.7262H71.8722C71.7647 25.6252 70.6701 24.3775 68.9292 24.3775C67.1883 24.3775 66.0215 25.6771 65.8603 27.7262Z" fill="#0F1828"/>
<path d="M76.5205 32.9797H75.2646V23.5944H76.4314V25.7319C77.0777 24.3425 78.4778 23.4526 80.0391 23.4526V24.7523C78.0464 24.6807 76.5219 25.9102 76.5219 27.9579V32.9797H76.5205Z" fill="#0F1828"/>
<path d="M87.0001 32.8912C86.5151 33.0876 86.1035 33.1578 85.6368 33.1578C84.0755 33.1578 82.8734 32.3564 82.8734 30.3255V24.6441H80.6475V23.5929H82.8734V20.814H84.1293V23.5929H87.0907V24.6441H84.1293V30.0589C84.1293 31.5199 84.8477 32.0182 85.8886 32.0182C86.2831 32.0182 86.607 31.9466 87.0016 31.7866V32.8912H87.0001Z" fill="#0F1828"/>
<path d="M91.4325 36.4182H90.0861L91.4678 32.8561L87.7173 23.5944H89.0636L92.1141 31.36L95.0034 23.5944H96.2776L91.4325 36.4182Z" fill="#0F1828"/>
<path d="M43.7402 48.8757V36.0884H45.0866V41.6982H52.408V36.0884H53.7543V48.8757H52.408V42.8561H45.0866V48.8757H43.7402Z" fill="#0F1828"/>
<path d="M55.8716 44.174C55.8716 41.36 57.7553 39.3291 60.3575 39.3291C62.9597 39.3291 64.8618 41.36 64.8618 44.174C64.8618 46.988 62.9781 49.054 60.3575 49.054C57.7369 49.054 55.8716 47.0063 55.8716 44.174ZM63.5876 44.174C63.5876 41.8765 62.2059 40.4154 60.3575 40.4154C58.5091 40.4154 57.1458 41.8765 57.1458 44.174C57.1458 46.4716 58.5275 47.9677 60.3575 47.9677C62.1875 47.9677 63.5876 46.5066 63.5876 44.174Z" fill="#0F1828"/>
<path d="M72.937 39.4905H74.1759V48.8758H73.0092V47.1832C72.5241 48.2695 71.3757 49.0526 69.994 49.0526C68.0735 49.0526 66.7993 47.9663 66.7993 45.5972V39.4891H68.0551V45.3305C68.0551 47.2365 69.0069 47.9663 70.3349 47.9663C71.8424 47.9663 72.937 46.7551 72.937 45.0807V39.4891V39.4905Z" fill="#0F1828"/>
<path d="M80.2399 49.0541C77.8895 49.0541 76.454 47.8779 76.2744 45.9369H77.4765C77.5656 47.273 78.6248 48.1095 80.2399 48.1095C81.8549 48.1095 82.7162 47.5214 82.7162 46.4534C82.7162 45.5271 82.1774 45.1004 80.7419 44.8155L79.3786 44.5488C77.584 44.2106 76.6322 43.3376 76.6322 41.9846C76.6322 40.4169 78.0323 39.3137 80.0956 39.3137C82.2665 39.3137 83.7033 40.4716 83.8462 42.3411H82.661C82.5352 41.0414 81.5848 40.2751 80.0942 40.2751C78.7663 40.2751 77.8513 40.8983 77.8513 41.8779C77.8513 42.8043 78.4254 43.2492 79.8255 43.5158L81.2426 43.7825C83.1263 44.139 83.9706 44.9221 83.9706 46.2583C83.9706 47.986 82.5705 49.0541 80.2385 49.0541H80.2399Z" fill="#0F1828"/>
<path d="M86.7726 38.261C86.18 38.261 85.7671 37.8694 85.7671 37.3165C85.7671 36.7635 86.18 36.3901 86.7726 36.3901C87.3652 36.3901 87.7951 36.7817 87.7951 37.3165C87.7951 37.8512 87.3821 38.261 86.7726 38.261ZM86.1631 48.8758V39.4905H87.4189V48.8758H86.1631Z" fill="#0F1828"/>
<path d="M91.4013 48.8758H90.1455V39.4905H91.3122V41.2533C91.9218 40.0954 93.0715 39.3123 94.4348 39.3123C96.4091 39.3123 97.6833 40.5586 97.6833 42.7845V48.8758H96.4275V43.2126C96.4275 41.4133 95.6016 40.3986 94.0587 40.3986C92.5158 40.3986 91.4028 41.6631 91.4028 43.4077V48.8758H91.4013Z" fill="#0F1828"/>
<path d="M99.8709 49.1607H101.073C101.18 50.6919 102.186 51.5116 103.873 51.5116C105.74 51.5116 106.727 50.5319 106.727 48.6793V46.72C106.153 48.0379 105.005 48.8042 103.604 48.8042C101.217 48.8042 99.6206 46.8982 99.6206 44.0491C99.6206 41.2 101.2 39.3123 103.586 39.3123C105.003 39.3123 106.188 40.1137 106.798 41.4849V39.4905H107.965V48.6624C107.965 51.0849 106.475 52.5094 103.89 52.5094C101.486 52.5094 99.9784 51.2631 99.8709 49.1607ZM103.783 47.7361C105.559 47.7361 106.744 46.3116 106.744 44.1389C106.744 41.8414 105.577 40.3817 103.783 40.3817C101.988 40.3817 100.875 41.7712 100.875 44.0505C100.875 46.3298 101.97 47.7375 103.783 47.7375V47.7361Z" fill="#0F1828"/>
<path d="M18.1063 19.3488H3.51855V33.8259H18.1063V19.3488Z" fill="#00B6B8"/>
<path d="M34.1238 19.3488H19.5361V33.8259H34.1238V19.3488Z" fill="#F8B99B"/>
<path d="M34.1069 17.9284H19.5361V3.46802C23.3545 3.64065 26.9198 5.19995 29.6422 7.9003C32.3631 10.6006 33.9329 14.1389 34.1083 17.9298L34.1069 17.9284Z" fill="#FFDCCF"/>
<path d="M7.54779 8.36913C10.2772 5.41896 14.0928 3.65615 18.1064 3.46948V17.9298H3.53564C3.70111 14.3747 5.11109 11.0035 7.54779 8.37053V8.36913Z" fill="#008586"/>
<path d="M18.1063 35.2449H3.51855V49.7221H18.1063V35.2449Z" fill="#72DFE1"/>
<path d="M34.1238 35.2449H19.5361V49.7221H34.1238V35.2449Z" fill="#F16F2D"/>
<path d="M109.424 41.2842C109.424 40.1417 110.33 39.2252 111.535 39.2252C112.74 39.2252 113.652 40.1431 113.652 41.2842C113.652 42.4252 112.746 43.3375 111.535 43.3375C110.325 43.3375 109.424 42.4196 109.424 41.2842ZM113.163 41.2842C113.163 40.3733 112.501 39.6561 111.535 39.6561C110.569 39.6561 109.913 40.3719 109.913 41.2842C109.913 42.1964 110.581 42.9122 111.535 42.9122C112.49 42.9122 113.163 42.1908 113.163 41.2842ZM111.452 41.6154H111.22V42.3256H110.725V40.2428H111.565C112.108 40.2428 112.43 40.4856 112.43 40.9291C112.43 41.2252 112.24 41.4386 111.971 41.5326L112.508 42.3256H111.9L111.453 41.6154H111.452ZM111.22 40.6512V41.2014H111.542C111.811 41.2014 111.937 41.1003 111.937 40.9291C111.937 40.7578 111.811 40.6512 111.542 40.6512H111.22Z" fill="#0F1828"/>
</g>
<defs>
<clipPath id="clip0_4_1984">
<rect width="110.309" height="49.2632" fill="white" transform="translate(3.39404 3.36841)"/>
</clipPath>
</defs>
</svg>
