<svg width="191" height="73" viewBox="0 0 191 73" fill="none" xmlns="http://www.w3.org/2000/svg">
<path d="M87.5617 64.3094H92.5357V45.4858H87.5617V64.3094ZM87.5617 42.5503H92.5357V38.0737H87.5617V42.5503Z" fill="white"/>
<path d="M95.7407 70.474H100.715V62.1814H100.788C101.848 63.7958 103.567 64.8599 106.201 64.8599C111.028 64.8599 114.32 61.0072 114.32 54.916C114.32 49.045 111.138 44.9722 106.164 44.9722C103.604 44.9722 101.848 46.1831 100.642 47.8341H100.532V45.4859H95.7407V70.474ZM105.14 60.7135C102.178 60.7135 100.605 58.4753 100.605 55.0628C100.605 51.6871 101.848 49.0083 104.957 49.0083C108.029 49.0083 109.273 51.5035 109.273 55.0628C109.273 58.6221 107.664 60.7135 105.14 60.7135Z" fill="white"/>
<path d="M124.242 64.8599C128.924 64.8599 132.142 62.5849 132.142 58.8055C132.142 54.4023 128.668 53.5217 125.522 52.8613C122.852 52.3109 120.365 52.1639 120.365 50.5496C120.365 49.1919 121.645 48.4579 123.584 48.4579C125.705 48.4579 126.985 49.1919 127.205 51.21H131.703C131.337 47.4306 128.594 44.9722 123.657 44.9722C119.378 44.9722 116.013 46.9169 116.013 50.9897C116.013 55.0995 119.305 56.0169 122.669 56.6774C125.23 57.1909 127.607 57.3745 127.607 59.1725C127.607 60.4934 126.363 61.3373 124.169 61.3373C121.938 61.3373 120.402 60.3834 120.073 58.2184H115.464C115.757 62.2181 118.793 64.8599 124.242 64.8599Z" fill="white"/>
<path d="M151.027 64.3094V45.4858H146.053V56.347C146.053 58.8421 144.626 60.6034 142.286 60.6034C140.165 60.6034 139.177 59.3925 139.177 57.1908V45.4858H134.24V58.0349C134.24 62.1444 136.58 64.8232 140.75 64.8232C143.383 64.8232 144.846 63.8324 146.126 62.1078H146.236V64.3094H151.027Z" fill="white"/>
<path d="M154.244 64.3095H159.218V53.3748C159.218 50.8797 160.572 49.2653 162.583 49.2653C164.412 49.2653 165.472 50.366 165.472 52.4943V64.3095H170.446V53.3748C170.446 50.8797 171.726 49.2653 173.811 49.2653C175.64 49.2653 176.7 50.366 176.7 52.4943V64.3095H181.674V51.6504C181.674 47.5407 179.443 44.9722 175.494 44.9722C173.116 44.9722 171.141 46.2197 169.861 48.2745H169.788C168.874 46.2931 166.972 44.9722 164.595 44.9722C161.998 44.9722 160.169 46.2931 159.145 48.0177H159.035V45.4859H154.244V64.3095Z" fill="white"/>
<path d="M87.6348 32.0687H92.6088V5.83301H87.6348V32.0687Z" fill="white"/>
<path d="M104.771 32.6192C110.586 32.6192 114.573 28.2894 114.573 22.6753C114.573 17.0612 110.586 12.7314 104.771 12.7314C98.9558 12.7314 94.9692 17.0612 94.9692 22.6753C94.9692 28.2894 98.9558 32.6192 104.771 32.6192ZM104.771 28.8031C101.699 28.8031 100.016 26.3446 100.016 22.6753C100.016 19.006 101.699 16.5109 104.771 16.5109C107.807 16.5109 109.526 19.006 109.526 22.6753C109.526 26.3446 107.807 28.8031 104.771 28.8031Z" fill="white"/>
<path d="M125.15 38.4902C127.93 38.4902 130.344 37.8297 131.917 36.3619C133.306 35.0776 134.148 33.2797 134.148 30.6378V13.2451H129.356V15.2266H129.283C128.15 13.6488 126.431 12.7314 124.09 12.7314C119.335 12.7314 115.97 16.3274 115.97 21.9415C115.97 27.6289 120.067 30.9312 124.236 30.9312C126.614 30.9312 128.04 29.9773 129.137 28.7297H129.247V30.7845C129.247 33.353 127.894 34.7106 125.077 34.7106C122.773 34.7106 121.713 33.7934 121.31 32.6192H116.373C116.885 36.2885 120.03 38.4902 125.15 38.4902ZM125.077 26.9318C122.517 26.9318 120.835 25.0604 120.835 21.8681C120.835 18.7125 122.517 16.731 125.041 16.731C128.04 16.731 129.503 19.0793 129.503 21.8314C129.503 24.62 128.223 26.9318 125.077 26.9318Z" fill="white"/>
<path d="M146.238 32.6192C152.053 32.6192 156.04 28.2894 156.04 22.6753C156.04 17.0612 152.053 12.7314 146.238 12.7314C140.423 12.7314 136.436 17.0612 136.436 22.6753C136.436 28.2894 140.423 32.6192 146.238 32.6192ZM146.238 28.8031C143.166 28.8031 141.483 26.3446 141.483 22.6753C141.483 19.006 143.166 16.5109 146.238 16.5109C149.273 16.5109 150.992 19.006 150.992 22.6753C150.992 26.3446 149.273 28.8031 146.238 28.8031Z" fill="white"/>
<path d="M160.4 24.8771H181.905V20.584H160.4V24.8771Z" fill="white"/>
<path d="M183.482 42.2883C183.482 41.4438 184.164 40.7593 185.006 40.7593H188.053C188.895 40.7593 189.578 41.4438 189.578 42.2883C189.578 43.1325 188.895 43.8171 188.053 43.8171H185.006C184.164 43.8171 183.482 43.1325 183.482 42.2883Z" fill="white"/>
<path fill-rule="evenodd" clip-rule="evenodd" d="M37.3298 0C57.4224 0 73.7107 16.3416 73.7107 36.5C73.7107 56.6584 57.4224 73 37.3298 73C17.2371 73 0.948822 56.6584 0.948822 36.5C0.948822 16.3416 17.2371 0 37.3298 0ZM36.0148 2.73128C31.8644 3.31728 27.9124 6.66322 24.8445 12.2593C23.9547 13.8825 23.1517 15.6758 22.452 17.6121C26.6234 16.5604 31.2058 15.9403 36.0148 15.8444V2.73128ZM19.3772 18.4887C20.2473 15.749 21.3118 13.2283 22.5402 10.9877C24.0609 8.21358 25.8658 5.81801 27.8993 3.97808C16.8415 7.20005 8.12537 15.9446 4.91393 27.0387C6.74784 24.9985 9.13562 23.1877 11.9007 21.662C14.134 20.4296 16.6464 19.3616 19.3772 18.4887ZM18.5033 21.5735C17.4552 25.7586 16.8372 30.356 16.7416 35.1807H3.67118C4.25529 31.0166 7.59032 27.0516 13.1681 23.9739C14.786 23.0811 16.5735 22.2756 18.5033 21.5735ZM19.3721 35.1807C19.4807 29.9154 20.2362 24.9722 21.4862 20.6046C25.8396 19.3505 30.7668 18.5924 36.0148 18.4834V24.1827C34.0569 29.2113 30.0638 33.2172 25.0514 35.1807H19.3721ZM16.7416 37.8193H3.67118C4.25529 41.9834 7.59032 45.9482 13.1681 49.0261C14.786 49.9189 16.5735 50.7244 18.5033 51.4265C17.4552 47.2414 16.8372 42.644 16.7416 37.8193ZM21.4862 52.3954C20.2362 48.0278 19.4807 43.0846 19.3721 37.8193H25.0514C30.0638 39.7828 34.0571 43.7887 36.0148 48.8173V54.5166C30.7668 54.4076 25.8396 53.6495 21.4862 52.3954ZM19.3772 54.5113C16.6464 53.6384 14.134 52.5704 11.9007 51.338C9.13562 49.8123 6.74784 48.0015 4.91393 45.9613C8.12537 57.0553 16.8415 65.8 27.8993 69.0219C25.8658 67.1819 24.0609 64.7864 22.5402 62.0122C21.3118 59.7717 20.2473 57.251 19.3772 54.5113ZM36.0148 70.2687C31.8644 69.6827 27.9124 66.3367 24.8445 60.7407C23.9547 59.1176 23.1517 57.3242 22.452 55.388C26.6234 56.4396 31.2058 57.0597 36.0148 57.1555V70.2687ZM46.7603 69.0219C48.7938 67.1819 50.5986 64.7864 52.1195 62.0122C53.3478 59.7717 54.4123 57.251 55.2823 54.5113C58.0131 53.6384 60.5255 52.5704 62.759 51.338C65.5239 49.8123 67.9118 48.0015 69.7456 45.9613C66.5342 57.0553 57.8181 65.8 46.7603 69.0219ZM52.2076 55.388C51.5078 57.3242 50.7049 59.1176 49.815 60.7407C46.7473 66.3367 42.7953 69.6827 38.6448 70.2687V57.1555C43.4538 57.0597 48.0361 56.4396 52.2076 55.388ZM56.1562 51.4265C58.086 50.7244 59.8736 49.9189 61.4914 49.0261C67.0692 45.9482 70.4042 41.9834 70.9883 37.8193H57.9179C57.8224 42.644 57.2043 47.2414 56.1562 51.4265ZM55.2876 37.8193C55.179 43.0846 54.4234 48.0278 53.1733 52.3954C48.82 53.6495 43.8929 54.4076 38.6448 54.5166V48.8215C40.6019 43.7911 44.596 39.7834 49.6098 37.8193H55.2876ZM57.9179 35.1807H70.9883C70.4042 31.0166 67.0692 27.0516 61.4914 23.9739C59.8736 23.0811 58.086 22.2756 56.1562 21.5735C57.2043 25.7586 57.8224 30.356 57.9179 35.1807ZM53.1733 20.6046C54.4234 24.9722 55.179 29.9154 55.2876 35.1807H49.6098C44.596 33.2166 40.6019 29.2089 38.6448 24.1785V18.4834C43.8929 18.5924 48.82 19.3505 53.1733 20.6046ZM55.2823 18.4887C58.0131 19.3616 60.5255 20.4296 62.759 21.662C65.5239 23.1877 67.9118 24.9985 69.7456 27.0387C66.5342 15.9446 57.8181 7.20005 46.7603 3.97808C48.7938 5.81801 50.5986 8.21358 52.1195 10.9877C53.3478 13.2283 54.4123 15.749 55.2823 18.4887ZM38.6448 2.73128C42.7953 3.31728 46.7473 6.66322 49.815 12.2593C50.7049 13.8825 51.5078 15.6758 52.2076 17.6121C48.0361 16.5604 43.4538 15.9403 38.6448 15.8444V2.73128Z" fill="white"/>
</svg>
